<svg xmlns="http://www.w3.org/2000/svg" width="192" height="32" viewBox="0 0 192 32" shape-rendering="crispEdges">
  <g transform="translate(0 0)">
    <rect width="32" height="32" fill="#09111a" />
    <rect x="4" y="4" width="2" height="2" fill="#244155" />
    <rect x="22" y="8" width="2" height="2" fill="#294b61" />
    <rect x="14" y="20" width="2" height="2" fill="#1e394b" />
  </g>

  <g transform="translate(32 0)">
    <rect width="32" height="32" fill="#203546" />
    <rect x="0" y="24" width="32" height="4" fill="#121f2c" />
    <rect x="6" y="6" width="20" height="4" fill="#425f75" />
    <rect x="6" y="14" width="20" height="2" fill="#6b8ca4" />
  </g>

  <g transform="translate(64 0)">
    <rect width="32" height="32" fill="#314456" />
    <rect y="10" width="32" height="12" fill="#6aa6c8" />
    <rect y="14" width="32" height="4" fill="#dff7ff" />
    <rect x="6" y="6" width="4" height="20" fill="#15232f" />
    <rect x="22" y="6" width="4" height="20" fill="#15232f" />
  </g>

  <g transform="translate(96 0)">
    <rect width="32" height="32" fill="#2f2521" />
    <rect y="0" width="32" height="32" fill="#55331f" opacity="0.5" />
    <rect y="12" width="32" height="8" fill="#ffb347" />
    <rect y="14" width="32" height="4" fill="#6b230f" />
    <rect x="4" y="4" width="4" height="4" fill="#ffd98f" />
    <rect x="24" y="24" width="4" height="4" fill="#ffd98f" />
  </g>

  <g transform="translate(128 0)">
    <rect width="32" height="32" fill="#102334" />
    <rect x="12" y="4" width="8" height="24" fill="#1e4f67" />
    <rect x="8" y="8" width="16" height="16" fill="#74f0d2" />
    <rect x="12" y="12" width="8" height="8" fill="#dffff8" />
  </g>

  <g transform="translate(160 0)">
    <rect width="32" height="32" fill="#132534" />
    <rect y="8" width="32" height="16" fill="#24495f" />
    <rect y="12" width="32" height="2" fill="#74f0d2" />
    <rect y="18" width="32" height="2" fill="#74f0d2" />
    <rect x="6" y="6" width="4" height="20" fill="#0c141c" />
    <rect x="22" y="6" width="4" height="20" fill="#0c141c" />
  </g>
</svg>
