<svg xmlns="http://www.w3.org/2000/svg" viewBox="0 0 16 16" shape-rendering="crispEdges">
  <rect width="16" height="16" fill="none"/>
  <rect x="4" y="1" width="8" height="1" fill="#082414"/>
  <rect x="3" y="2" width="10" height="1" fill="#082414"/>
  <rect x="2" y="3" width="12" height="1" fill="#082414"/>
  <rect x="2" y="4" width="12" height="1" fill="#082414"/>
  <rect x="2" y="5" width="12" height="1" fill="#082414"/>
  <rect x="3" y="6" width="10" height="1" fill="#082414"/>
  <rect x="3" y="7" width="10" height="1" fill="#082414"/>
  <rect x="4" y="8" width="8" height="1" fill="#082414"/>
  <rect x="4" y="9" width="8" height="1" fill="#082414"/>
  <rect x="5" y="10" width="6" height="1" fill="#082414"/>
  <rect x="5" y="11" width="6" height="1" fill="#082414"/>
  <rect x="6" y="12" width="4" height="1" fill="#082414"/>
  <rect x="7" y="13" width="2" height="1" fill="#082414"/>

  <rect x="4" y="2" width="8" height="1" fill="#1efb79"/>
  <rect x="3" y="3" width="10" height="4" fill="#1efb79"/>
  <rect x="4" y="7" width="8" height="2" fill="#11cf5d"/>
  <rect x="5" y="9" width="6" height="3" fill="#0f9f49"/>
  <rect x="6" y="12" width="4" height="1" fill="#0c7a39"/>

  <rect x="5" y="3" width="2" height="2" fill="#7dffb0"/>
  <rect x="7" y="3" width="1" height="1" fill="#d8ffe6"/>

  <rect x="7" y="5" width="2" height="4" fill="#effff5"/>
  <rect x="6" y="6" width="4" height="2" fill="#effff5"/>
  <rect x="7" y="6" width="2" height="2" fill="#0ccf67"/>
</svg>
