<svg xmlns="http://www.w3.org/2000/svg" viewBox="0 0 16 16" shape-rendering="crispEdges">
  <rect width="16" height="16" fill="none"/>
  <rect x="1" y="6" width="3" height="4" fill="#260018"/>
  <rect x="2" y="5" width="2" height="1" fill="#260018"/>
  <rect x="2" y="10" width="1" height="2" fill="#260018"/>
  <rect x="4" y="7" width="2" height="2" fill="#260018"/>
  <rect x="6" y="6" width="1" height="1" fill="#260018"/>
  <rect x="6" y="9" width="1" height="1" fill="#260018"/>
  <rect x="7" y="7" width="6" height="2" fill="#260018"/>
  <rect x="13" y="6" width="1" height="4" fill="#260018"/>

  <rect x="2" y="6" width="2" height="4" fill="#ff4fd8"/>
  <rect x="3" y="5" width="1" height="1" fill="#ff88eb"/>
  <rect x="3" y="10" width="1" height="1" fill="#ff88eb"/>
  <rect x="4" y="7" width="2" height="2" fill="#ffb8f7"/>
  <rect x="7" y="7" width="5" height="2" fill="#ff4fd8"/>
  <rect x="8" y="6" width="4" height="1" fill="#ff88eb"/>
  <rect x="8" y="9" width="4" height="1" fill="#ff88eb"/>
  <rect x="12" y="7" width="1" height="2" fill="#ffffff"/>
  <rect x="13" y="7" width="1" height="2" fill="#ffb8f7"/>
</svg>
