<svg xmlns="http://www.w3.org/2000/svg" viewBox="0 0 16 16" shape-rendering="crispEdges">
  <rect width="16" height="16" fill="none"/>
  <rect x="6" y="1" width="4" height="1" fill="#08131d"/>
  <rect x="5" y="2" width="6" height="1" fill="#08131d"/>
  <rect x="4" y="3" width="8" height="1" fill="#08131d"/>
  <rect x="4" y="4" width="8" height="1" fill="#08131d"/>
  <rect x="3" y="5" width="10" height="1" fill="#08131d"/>
  <rect x="3" y="6" width="10" height="1" fill="#08131d"/>
  <rect x="4" y="7" width="8" height="1" fill="#08131d"/>
  <rect x="5" y="8" width="6" height="1" fill="#08131d"/>
  <rect x="6" y="9" width="4" height="1" fill="#08131d"/>
  <rect x="6" y="10" width="1" height="1" fill="#08131d"/>
  <rect x="9" y="10" width="1" height="1" fill="#08131d"/>
  <rect x="7" y="11" width="2" height="1" fill="#08131d"/>
  <rect x="6" y="12" width="4" height="1" fill="#08131d"/>
  <rect x="5" y="13" width="6" height="1" fill="#08131d"/>
  <rect x="6" y="14" width="4" height="1" fill="#08131d"/>

  <rect x="6" y="2" width="4" height="1" fill="#7de5ff"/>
  <rect x="5" y="3" width="6" height="2" fill="#5cc7ff"/>
  <rect x="4" y="5" width="8" height="2" fill="#34a9ea"/>
  <rect x="5" y="7" width="6" height="2" fill="#1f78b6"/>
  <rect x="7" y="3" width="2" height="1" fill="#dbf9ff"/>
  <rect x="6" y="4" width="1" height="1" fill="#dbf9ff"/>

  <rect x="7" y="10" width="2" height="2" fill="#ffd06b"/>
  <rect x="6" y="12" width="4" height="1" fill="#ff9f49"/>
  <rect x="5" y="13" width="6" height="1" fill="#ff6a33"/>
  <rect x="6" y="14" width="4" height="1" fill="#ffb85c"/>
</svg>
